HIERARCHY
ROOT hip
{
  OFFSET 0 0 0
  CHANNELS 6 Xposition Yposition Zposition Zrotation Yrotation Xrotation
  JOINT abdomen
  {
    OFFSET 0 20.6881 -0.73152
    CHANNELS 3 Zrotation Xrotation Yrotation
    JOINT chest
    {
      OFFSET 0 11.7043 -0.48768
      CHANNELS 3 Zrotation Xrotation Yrotation
      JOINT neck
      {
        OFFSET 0 22.1894 -2.19456
        CHANNELS 3 Zrotation Xrotation Yrotation
        JOINT head
        {
          OFFSET -0.24384 7.07133 1.2192
          CHANNELS 3 Zrotation Xrotation Yrotation
          JOINT leftEye
          {
            OFFSET 4.14528 8.04674 8.04672
            CHANNELS 3 Zrotation Xrotation Yrotation
            End Site
            {
              OFFSET 1 0 0
            }
          }
          JOINT rightEye
          {
            OFFSET -3.6576 8.04674 8.04672
            CHANNELS 3 Zrotation Xrotation Yrotation
            End Site
            {
              OFFSET 1 0 0
            }
          }
        }
      }
      JOINT rCollar
      {
        OFFSET -2.68224 19.2634 -4.8768
        CHANNELS 3 Zrotation Xrotation Yrotation
        JOINT rShldr
        {
          OFFSET -8.77824 -1.95073 1.46304
          CHANNELS 3 Zrotation Xrotation Yrotation
          JOINT rForeArm
          {
            OFFSET -28.1742 -1.7115 0.48768
            CHANNELS 3 Zrotation Xrotation Yrotation
            JOINT rHand
            {
              OFFSET -22.5879 0.773209 7.07136
              CHANNELS 3 Zrotation Xrotation Yrotation
              JOINT rThumb1
              {
                OFFSET -1.2192 -0.487915 3.41376
                CHANNELS 3 Zrotation Xrotation Yrotation
                JOINT rThumb2
                {
                  OFFSET -3.37035 -0.52449 3.41376
                  CHANNELS 3 Zrotation Xrotation Yrotation
                  End Site
                  {
                    OFFSET -1.78271 -1.18214 1.43049
                  }
                }
              }
              JOINT rIndex1
              {
                OFFSET -7.75947 0.938293 5.60832
                CHANNELS 3 Zrotation Xrotation Yrotation
                JOINT rIndex2
                {
                  OFFSET -2.54057 -0.884171 1.56538
                  CHANNELS 3 Zrotation Xrotation Yrotation
                  End Site
                  {
                    OFFSET -1.62519 -0.234802 1.16502
                  }
                }
              }
              JOINT rMid1
              {
                OFFSET -8.24714 1.18213 3.41376
                CHANNELS 3 Zrotation Xrotation Yrotation
                JOINT rMid2
                {
                  OFFSET -3.10165 -0.590103 1.0647
                  CHANNELS 3 Zrotation Xrotation Yrotation
                  End Site
                  {
                    OFFSET -2.48547 -0.328903 0.83742
                  }
                }
              }
              JOINT rRing1
              {
                OFFSET -8.82822 0.546677 1.51678
                CHANNELS 3 Zrotation Xrotation Yrotation
                JOINT rRing2
                {
                  OFFSET -2.60934 -0.819778 -0.0198488
                  CHANNELS 3 Zrotation Xrotation Yrotation
                  End Site
                  {
                    OFFSET -2.33842 -0.294052 0.168128
                  }
                }
              }
              JOINT rPinky1
              {
                OFFSET -8.27202 -0.0477905 -0.4584
                CHANNELS 3 Zrotation Xrotation Yrotation
                JOINT rPinky2
                {
                  OFFSET -1.82734 -0.647385 -0.700984
                  CHANNELS 3 Zrotation Xrotation Yrotation
                  End Site
                  {
                    OFFSET -1.69225 -0.51767 -0.607171
                  }
                }
              }
            }
          }
        }
      }
      JOINT lCollar
      {
        OFFSET 2.68224 19.2634 -4.8768
        CHANNELS 3 Zrotation Xrotation Yrotation
        JOINT lShldr
        {
          OFFSET 8.77824 -1.95073 1.46304
          CHANNELS 3 Zrotation Xrotation Yrotation
          JOINT lForeArm
          {
            OFFSET 28.1742 -1.7115 0.48768
            CHANNELS 3 Zrotation Xrotation Yrotation
            JOINT lHand
            {
              OFFSET 22.5879 0.773209 7.07136
              CHANNELS 3 Zrotation Xrotation Yrotation
              JOINT lThumb1
              {
                OFFSET 1.2192 -0.487915 3.41376
                CHANNELS 3 Zrotation Xrotation Yrotation
                JOINT lThumb2
                {
                  OFFSET 3.37035 -0.52449 3.41376
                  CHANNELS 3 Zrotation Xrotation Yrotation
                  End Site
                  {
                    OFFSET 1.78271 -1.18214 1.43049
                  }
                }
              }
              JOINT lIndex1
              {
                OFFSET 7.75947 0.938293 5.60832
                CHANNELS 3 Zrotation Xrotation Yrotation
                JOINT lIndex2
                {
                  OFFSET 2.54057 -0.884171 1.56538
                  CHANNELS 3 Zrotation Xrotation Yrotation
                  End Site
                  {
                    OFFSET 1.62519 -0.234802 1.16502
                  }
                }
              }
              JOINT lMid1
              {
                OFFSET 8.24714 1.18213 3.41376
                CHANNELS 3 Zrotation Xrotation Yrotation
                JOINT lMid2
                {
                  OFFSET 3.10165 -0.590103 1.0647
                  CHANNELS 3 Zrotation Xrotation Yrotation
                  End Site
                  {
                    OFFSET 2.48547 -0.328903 0.83742
                  }
                }
              }
              JOINT lRing1
              {
                OFFSET 8.82822 0.546677 1.51678
                CHANNELS 3 Zrotation Xrotation Yrotation
                JOINT lRing2
                {
                  OFFSET 2.60934 -0.819778 -0.0198488
                  CHANNELS 3 Zrotation Xrotation Yrotation
                  End Site
                  {
                    OFFSET 2.33842 -0.294052 0.168128
                  }
                }
              }
              JOINT lPinky1
              {
                OFFSET 8.27202 -0.0477905 -0.4584
                CHANNELS 3 Zrotation Xrotation Yrotation
                JOINT lPinky2
                {
                  OFFSET 1.82734 -0.647385 -0.700984
                  CHANNELS 3 Zrotation Xrotation Yrotation
                  End Site
                  {
                    OFFSET 1.69225 -0.51767 -0.607171
                  }
                }
              }
            }
          }
        }
      }
    }
  }
  JOINT rButtock
  {
    OFFSET -8.77824 4.35084 1.2192
    CHANNELS 3 Zrotation Xrotation Yrotation
    JOINT rThigh
    {
      OFFSET 0 -1.70687 -2.19456
      CHANNELS 3 Zrotation Xrotation Yrotation
      JOINT rShin
      {
        OFFSET 0 -36.8199 0.73152
        CHANNELS 3 Zrotation Xrotation Yrotation
        JOINT rFoot
        {
          OFFSET 0.73152 -45.1104 -5.12064
          CHANNELS 3 Zrotation Xrotation Yrotation
          End Site
          {
            OFFSET -1.1221 -3.69964 12.103
          }
        }
      }
    }
  }
  JOINT lButtock
  {
    OFFSET 8.77824 4.35084 1.2192
    CHANNELS 3 Zrotation Xrotation Yrotation
    JOINT lThigh
    {
      OFFSET 0 -1.70687 -2.19456
      CHANNELS 3 Zrotation Xrotation Yrotation
      JOINT lShin
      {
        OFFSET 0 -36.8199 0.73152
        CHANNELS 3 Zrotation Xrotation Yrotation
        JOINT lFoot
        {
          OFFSET -0.73152 -45.1104 -5.12064
          CHANNELS 3 Zrotation Xrotation Yrotation
          End Site
          {
            OFFSET 1.1221 -3.69964 12.103
          }
        }
      }
    }
  }
}
MOTION
Frames:	8
Frame Time:	0.00833333
-2.9399 34.4433 -128.573 -108.246 -32.2324 135.466 20.1734 59.7338 -12.322 6.43232 -11.1777 -1.74454 -6.05524 7.42429 -10.1885 40.3501 -24.3395 -15.6575 -0.0 0.0 0.0 -0.0 0.0 0.0 4.33667e-13 -4.59911e-13 3.58514e-13 32.2716 -16.8192 24.5397 -27.103 -26.6851 61.9603 -0.230854 -13.6153 -1.95019 -1.06169e-09 1.68817e-09 1.59724e-09 -1.84216e-09 2.86113e-09 2.75424e-09 -1.06169e-09 1.68817e-09 1.59724e-09 7.73091 5.47488 0.417314 -1.06169e-09 1.68818e-09 1.59724e-09 2.90554 0.965183 0.102902 -1.06168e-09 1.68818e-09 1.59724e-09 10.2786 0.731801 0.0259123 -1.06169e-09 1.68818e-09 1.59725e-09 2.22167 -0.733487 -0.20892 4.33454e-13 -4.59867e-13 3.58316e-13 -53.1764 19.1055 -1.82812 27.3303 -27.4865 -63.3305 4.03874 48.1537 -9.02692 3.69188e-09 8.35558e-09 1.06115e-09 6.40326e-09 1.43352e-08 1.69605e-09 3.69188e-09 8.35559e-09 1.06117e-09 -7.73091 5.47488 -0.417314 3.69188e-09 8.35558e-09 1.06115e-09 -2.90554 0.965183 -0.102902 3.69188e-09 8.35558e-09 1.06115e-09 -10.2786 0.731801 -0.0259123 3.69188e-09 8.35558e-09 1.06114e-09 -2.22167 -0.733487 0.20892 -2.03217e-16 0.0 -3.88251e-19 -100.54 -60.1618 -112.446 -2.92326 73.8214 2.96733 -1.31749 26.05 1.6366 2.03217e-16 0.0 3.88251e-19 72.2684 -47.283 58.5078 179.187 42.5878 169.89 12.9837 33.7518 -32.9984
-2.96403 34.8936 -129.93 -109.036 -34.2206 136.095 18.934 59.9663 -12.0295 6.53203 -11.0513 -1.78715 -6.14875 7.71496 -10.2745 40.7956 -25.1062 -15.4849 -0.0 0.0 0.0 -0.0 0.0 0.0 4.64093e-13 -5.02993e-13 1.57715e-13 33.0368 -15.7595 23.8972 -27.216 -27.0853 62.5962 -0.197964 -12.6085 -1.80117 -1.09939e-09 9.04519e-09 4.95068e-09 -1.94221e-09 1.54957e-08 8.55177e-09 -1.09939e-09 9.0452e-09 4.95069e-09 7.73091 5.47488 0.417314 -1.09939e-09 9.0452e-09 4.95069e-09 2.90554 0.965183 0.102902 -1.09939e-09 9.0452e-09 4.95069e-09 10.2786 0.731801 0.0259123 -1.0994e-09 9.0452e-09 4.9507e-09 2.22167 -0.733487 -0.20892 4.63872e-13 -5.02983e-13 1.57517e-13 -51.9042 18.5064 -2.33644 27.0256 -26.41 -61.6811 3.72967 46.8014 -8.60677 3.84226e-09 6.74348e-09 7.27089e-10 6.65354e-09 1.15341e-08 1.11939e-09 3.84226e-09 6.7435e-09 7.27115e-10 -7.73091 5.47488 -0.417314 3.84226e-09 6.74348e-09 7.27092e-10 -2.90554 0.965183 -0.102902 3.84225e-09 6.74348e-09 7.27087e-10 -10.2786 0.731801 -0.0259123 3.84226e-09 6.74348e-09 7.2708e-10 -2.22167 -0.733487 0.20892 -2.03217e-16 0.0 -3.88251e-19 -104.098 -59.1402 -116.939 -3.43671 75.639 3.42616 -1.38271 25.9551 1.87473 2.03217e-16 0.0 3.88251e-19 72.4923 -46.2372 57.6925 179.233 42.8435 169.567 13.2646 33.2561 -34.0004
-3.01575 35.2837 -131.262 -109.968 -36.1734 136.765 17.7461 60.1085 -11.7392 6.61777 -10.9274 -1.82791 -6.27351 7.99599 -10.3814 41.1584 -25.7609 -15.3762 -0.0 0.0 0.0 -0.0 0.0 0.0 4.24676e-13 -4.23005e-13 -5.397e-14 33.6958 -14.7594 23.1878 -27.3086 -27.4289 63.156 -0.170291 -11.6798 -1.66484 -1.01649e-09 1.3691e-08 7.1772e-09 -1.8206e-09 2.34695e-08 1.24e-08 -1.01648e-09 1.3691e-08 7.17721e-09 7.73091 5.47488 0.417314 -1.01649e-09 1.3691e-08 7.1772e-09 2.90554 0.965183 0.102902 -1.01648e-09 1.3691e-08 7.17721e-09 10.2786 0.731801 0.0259123 -1.01649e-09 1.3691e-08 7.17722e-09 2.22167 -0.733487 -0.20892 4.24461e-13 -4.23023e-13 -5.41688e-14 -50.6344 18.0746 -3.08272 26.6681 -25.2866 -59.7412 3.44666 45.4702 -8.21375 3.54073e-09 5.47493e-09 8.49055e-10 6.13858e-09 9.3503e-09 1.34096e-09 3.54074e-09 5.47495e-09 8.49087e-10 -7.73091 5.47488 -0.417314 3.54074e-09 5.47494e-09 8.49059e-10 -2.90554 0.965183 -0.102902 3.54073e-09 5.47493e-09 8.49052e-10 -10.2786 0.731801 -0.0259123 3.54074e-09 5.47493e-09 8.49046e-10 -2.22167 -0.733487 0.20892 -2.03217e-16 0.0 -3.88251e-19 -107.215 -58.0698 -120.966 -4.10933 77.4735 4.04592 -1.50714 25.9791 2.28131 2.03217e-16 0.0 3.88251e-19 72.3129 -45.2913 56.6794 179.269 43.2622 169.34 13.7685 32.8735 -35.1476
-3.09518 35.6202 -132.549 -111.067 -38.0763 137.529 16.5973 60.1598 -11.4308 6.69264 -10.8051 -1.8642 -6.43893 8.27079 -10.5178 41.4205 -26.2849 -15.3474 -0.0 0.0 0.0 -0.0 0.0 0.0 2.38057e-13 -6.8164e-14 -3.41727e-13 34.2224 -13.8123 22.38 -27.3848 -27.7219 63.6319 -0.145204 -10.8151 -1.53843 -6.84956e-10 1.46454e-08 7.89612e-09 -1.25055e-09 2.50953e-08 1.36398e-08 -6.84949e-10 1.46454e-08 7.89612e-09 7.73091 5.47488 0.417314 -6.84954e-10 1.46454e-08 7.89612e-09 2.90554 0.965183 0.102902 -6.84948e-10 1.46454e-08 7.89613e-09 10.2786 0.731801 0.0259123 -6.84959e-10 1.46454e-08 7.89614e-09 2.22167 -0.733487 -0.20892 2.37875e-13 -6.82033e-14 -3.41922e-13 -49.3144 17.8182 -4.13834 26.2079 -23.9828 -57.407 3.19108 44.1834 -7.851 2.42892e-09 4.69787e-09 1.85879e-09 4.25374e-09 8.05811e-09 3.11459e-09 2.42893e-09 4.69789e-09 1.85882e-09 -7.73091 5.47488 -0.417314 2.42892e-09 4.69788e-09 1.85879e-09 -2.90554 0.965183 -0.102902 2.42891e-09 4.69788e-09 1.85878e-09 -10.2786 0.731801 -0.0259123 2.42892e-09 4.69788e-09 1.85878e-09 -2.22167 -0.733487 0.20892 -2.03217e-16 0.0 -3.88251e-19 -109.985 -57.0023 -124.61 -5.03513 79.3394 4.92246 -1.72497 26.1833 2.94953 2.03217e-16 0.0 3.88251e-19 71.6953 -44.4229 55.4309 179.286 43.8608 169.217 14.5715 32.6094 -36.5211
-3.19976 35.9171 -133.785 -112.301 -39.9024 138.391 15.4188 60.1295 -11.0816 6.77129 -10.6733 -1.89761 -6.6371 8.55649 -10.68 41.5902 -26.7208 -15.3783 -0.0 0.0 0.0 -0.0 0.0 0.0 -5.49774e-14 4.7751e-13 -7.08807e-13 34.656 -12.8937 21.476 -27.4507 -27.9809 64.0394 -0.121415 -9.93105 -1.40986 -1.55489e-10 1.35783e-08 7.78965e-09 -3.27804e-10 2.32442e-08 1.34511e-08 -1.55482e-10 1.35784e-08 7.78964e-09 7.73091 5.47488 0.417314 -1.55488e-10 1.35783e-08 7.78965e-09 2.90554 0.965183 0.102902 -1.55481e-10 1.35783e-08 7.78965e-09 10.2786 0.731801 0.0259123 -1.55492e-10 1.35783e-08 7.78966e-09 2.22167 -0.733487 -0.20892 -5.51091e-14 4.77451e-13 -7.08997e-13 -47.9329 17.7033 -5.47037 25.5762 -22.3909 -54.7803 2.9538 42.905 -7.50611 5.9678e-10 3.57323e-09 3.40761e-09 1.14336e-09 6.20091e-09 5.83933e-09 5.96798e-10 3.57325e-09 3.40764e-09 -7.73091 5.47488 -0.417314 5.96786e-10 3.57324e-09 3.40761e-09 -2.90554 0.965183 -0.102902 5.96776e-10 3.57324e-09 3.40761e-09 -10.2786 0.731801 -0.0259123 5.96783e-10 3.57324e-09 3.4076e-09 -2.22167 -0.733487 0.20892 -2.03217e-16 0.0 -3.88251e-19 -112.575 -55.9257 -128.016 -6.43497 81.2977 6.27374 -2.0225 26.4695 3.82745 2.03217e-16 0.0 3.88251e-19 70.7027 -43.5999 53.9768 179.286 44.6108 169.188 15.5761 32.3771 -38.0471
-3.33303 36.1794 -134.95 -113.664 -41.6962 139.355 14.3013 60.012 -10.7638 6.83572 -10.5422 -1.93281 -6.85165 8.83228 -10.8519 41.6916 -27.0769 -15.4487 -0.0 0.0 0.0 -0.0 0.0 0.0 -3.1096e-13 9.35517e-13 -1.00611e-12 35.0328 -12.0319 20.539 -27.5039 -28.1959 64.3741 -0.102139 -9.12227 -1.29294 3.21882e-10 1.14425e-08 7.20265e-09 5.09214e-10 1.95593e-08 1.24322e-08 3.21889e-10 1.14425e-08 7.20264e-09 7.73091 5.47488 0.417314 3.21884e-10 1.14425e-08 7.20264e-09 2.90554 0.965183 0.102902 3.21891e-10 1.14425e-08 7.20264e-09 10.2786 0.731801 0.0259123 3.21879e-10 1.14425e-08 7.20265e-09 2.22167 -0.733487 -0.20892 -3.11042e-13 9.35444e-13 -1.00629e-12 -46.6009 17.7233 -6.94733 24.7921 -20.6511 -52.0615 2.72843 41.6101 -7.17094 -1.21678e-09 2.39745e-09 4.78561e-09 -1.94037e-09 4.25376e-09 8.26978e-09 -1.21676e-09 2.39747e-09 4.78564e-09 -7.73091 5.47488 -0.417314 -1.21678e-09 2.39746e-09 4.78562e-09 -2.90554 0.965183 -0.102902 -1.21679e-09 2.39746e-09 4.78561e-09 -10.2786 0.731801 -0.0259123 -1.21678e-09 2.39746e-09 4.78561e-09 -2.22167 -0.733487 0.20892 -2.03217e-16 0.0 -3.88251e-19 -114.855 -54.8561 -131.109 -8.67378 83.2626 8.46172 -2.3493 26.7652 4.75144 2.03217e-16 0.0 3.88251e-19 69.3893 -42.84 52.3699 179.279 45.4985 169.241 16.7081 32.1946 -39.6008
-3.49735 36.4248 -136.052 -115.116 -43.4308 140.39 13.3341 59.8021 -10.5484 6.86794 -10.4223 -1.97451 -7.06678 9.07747 -11.0175 41.75 -27.3617 -15.538 -0.0 0.0 0.0 -0.0 0.0 0.0 -3.86424e-13 1.02736e-12 -1.08452e-12 35.3824 -11.2582 19.6306 -27.5422 -28.3564 64.6311 -0.0890886 -8.48341 -1.20114 4.97129e-10 9.19075e-09 6.47998e-09 8.22069e-10 1.56838e-08 1.11814e-08 4.97135e-10 9.19074e-09 6.47997e-09 7.73091 5.47488 0.417314 4.97131e-10 9.19074e-09 6.47998e-09 2.90554 0.965183 0.102902 4.97137e-10 9.19074e-09 6.47998e-09 10.2786 0.731801 0.0259123 4.97125e-10 9.19074e-09 6.47999e-09 2.22167 -0.733487 -0.20892 -3.86476e-13 1.02728e-12 -1.08472e-12 -45.4269 17.8739 -8.43852 23.9337 -18.9737 -49.4002 2.51022 40.2737 -6.83881 -2.27287e-09 1.46696e-09 5.2829e-09 -3.74529e-09 2.69174e-09 9.16053e-09 -2.27285e-09 1.46698e-09 5.28293e-09 -7.73091 5.47488 -0.417314 -2.27286e-09 1.46697e-09 5.2829e-09 -2.90554 0.965183 -0.102902 -2.27288e-09 1.46697e-09 5.2829e-09 -10.2786 0.731801 -0.0259123 -2.27287e-09 1.46697e-09 5.2829e-09 -2.22167 -0.733487 0.20892 -2.03217e-16 0.0 -3.88251e-19 -116.707 -53.8224 -133.822 -12.5718 85.1433 12.3038 -2.64658 27.0021 5.55418 2.03217e-16 0.0 3.88251e-19 67.8008 -42.1656 50.6547 179.274 46.5097 169.367 17.8949 32.0878 -41.0609
-3.69864 36.6598 -137.098 -116.656 -45.1204 141.487 12.5617 59.4954 -10.4525 6.85729 -10.318 -2.02154 -7.27961 9.29041 -11.18 41.7761 -27.5675 -15.6564 -0.0 0.0 0.0 -0.0 0.0 0.0 -1.44926e-13 4.64374e-13 -7.94689e-13 35.701 -10.6042 18.7218 -27.5656 -28.4573 64.7982 -0.0807508 -8.03701 -1.13722 2.00824e-10 6.74215e-09 5.49579e-09 3.17441e-10 1.14849e-08 9.48291e-09 2.0083e-10 6.74215e-09 5.49577e-09 7.73091 5.47488 0.417314 2.00826e-10 6.74214e-09 5.49578e-09 2.90554 0.965183 0.102902 2.00831e-10 6.74215e-09 5.49578e-09 10.2786 0.731801 0.0259123 2.0082e-10 6.74214e-09 5.49579e-09 2.22167 -0.733487 -0.20892 -1.4498e-13 4.64324e-13 -7.94922e-13 -44.3447 18.2713 -10.0086 23.0416 -17.428 -46.692 2.28072 38.7801 -6.48158 -2.25098e-09 8.01984e-10 4.2839e-09 -3.73685e-09 1.52992e-09 7.44148e-09 -2.25097e-09 8.01997e-10 4.28393e-09 -7.73091 5.47488 -0.417314 -2.25097e-09 8.01988e-10 4.2839e-09 -2.90554 0.965183 -0.102902 -2.25098e-09 8.0199e-10 4.2839e-09 -10.2786 0.731801 -0.0259123 -2.25098e-09 8.01991e-10 4.2839e-09 -2.22167 -0.733487 0.20892 -2.03217e-16 0.0 -3.88251e-19 -118.177 -52.8292 -136.231 -21.0408 86.9379 20.71 -2.91944 27.2333 6.2527 2.03217e-16 0.0 3.88251e-19 65.8451 -41.6114 48.7741 179.257 47.674 169.609 19.0937 32.0137 -42.3743
